<?xml version="1.0" ?><svg id="Layer_1" style="enable-background:new 0 0 30 30;" version="1.1" viewBox="0 0 30 30" xml:space="preserve" xmlns="http://www.w3.org/2000/svg" xmlns:xlink="http://www.w3.org/1999/xlink"><path fill="#676767" d="M11,24c-2.206,0-4-1.794-4-4V7H6C4.895,7,4,7.895,4,9v16c0,1.105,0.895,2,2,2h13c1.105,0,2-0.895,2-2v-1H11z"/><path fill="#676767" d="M25.707,7.793l-5.5-5.5C20.019,2.105,19.765,2,19.5,2H11C9.895,2,9,2.895,9,4v16c0,1.105,0.895,2,2,2h13  c1.105,0,2-0.895,2-2V8.5C26,8.235,25.895,7.981,25.707,7.793z M20,9c-0.552,0-1-0.448-1-1V3.904L24.096,9H20z"/></svg>
